<?xml version="1.0" encoding="UTF-8" standalone="no"?>
<svg width="24px" height="19px" viewBox="0 0 24 19" version="1.1" xmlns="http://www.w3.org/2000/svg" xmlns:xlink="http://www.w3.org/1999/xlink" xmlns:sketch="http://www.bohemiancoding.com/sketch/ns">
    <!-- Generator: Sketch 3.0.3 (7892) - http://www.bohemiancoding.com/sketch -->
    <title>Shape</title>
    <desc>Created with Sketch.</desc>
    <defs></defs>
    <g id="Page-1" stroke="none" stroke-width="1" fill="none" fill-rule="evenodd" sketch:type="MSPage">
        <g id="checked" sketch:type="MSLayerGroup" transform="translate(0.000000, 1.000000)" fill="#5BB75B">
            <g id="Page-1" sketch:type="MSShapeGroup">
                <g id="checkmark">
                    <path d="M21.652,0.211 C21.359,-0.084 20.882,-0.084 20.591,0.211 L9.41,11.34 C9.117,11.637 8.639,11.637 8.348,11.34 L3.449,6.351 C3.304,6.203 3.114,6.13 2.923,6.129 C2.73,6.128 2.534,6.201 2.387,6.351 L0.222,8.297 C0.078,8.445 0,8.63 0,8.823 C0,9.017 0.078,9.22 0.223,9.367 L5.163,14.551 C5.455,14.847 5.934,15.327 6.225,15.621 L8.349,17.762 C8.641,18.055 9.118,18.055 9.411,17.762 L23.777,3.422 C24.07,3.128 24.07,2.645 23.777,2.351 L21.652,0.211 L21.652,0.211 Z" id="Shape"></path>
                </g>
            </g>
        </g>
    </g>
</svg>